<svg version="1.1" xmlns="http://www.w3.org/2000/svg" xmlns:xlink="http://www.w3.org/1999/xlink" x="0px" y="0px" viewBox="0 0 48 48" xml:space="preserve" width="48" height="48"><g class="nc-icon-wrapper"><path fill="#E6E6E6" d="M41,3v41L7,44c0,0,0,0,0,0V3c0-1.105,0.895-2,2-2h30C40.105,1,41,1.895,41,3z"></path> <path fill="#B3B3B3" d="M34,13H14c-0.552,0-1-0.448-1-1s0.448-1,1-1h20c0.552,0,1,0.448,1,1S34.552,13,34,13z"></path> <path fill="#B3B3B3" d="M34,23H14c-0.552,0-1-0.448-1-1s0.448-1,1-1h20c0.552,0,1,0.448,1,1S34.552,23,34,23z"></path> <path fill="#A67C52" d="M31,31v5c0,0.552-0.448,1-1,1H18c-0.552,0-1-0.448-1-1v-5H2c-0.552,0-1,0.448-1,1v14c0,0.552,0.448,1,1,1h44 c0.552,0,1-0.448,1-1V32c0-0.552-0.448-1-1-1H31z"></path></g></svg>