<svg version="1.1" xmlns="http://www.w3.org/2000/svg" xmlns:xlink="http://www.w3.org/1999/xlink" x="0px" y="0px" viewBox="0 0 48 48" xml:space="preserve" width="48" height="48"><g class="nc-icon-wrapper"><polygon fill="#EFD358" points="14,20 4,41 11.13303,39.94172 14.85337,46.11902 24,27 "></polygon> <polygon fill="#EFD358" points="34,20 44,41 36.86697,39.94172 33.14663,46.11902 24,27 "></polygon> <path fill="#E86C60" d="M39,16c0-1.69408-0.84812-3.17852-2.13975-4.07663c-0.69671-0.48445-1.03413-1.29907-0.88403-2.13427 c0.27827-1.54838-0.17172-3.19785-1.3696-4.39573c-1.19788-1.19789-2.84736-1.64791-4.39574-1.36965 c-0.83519,0.15009-1.64979-0.18732-2.13424-0.88401C27.17852,1.84812,25.69403,1,24,1s-3.17852,0.84812-4.07664,2.13971 c-0.48445,0.69669-1.29905,1.03411-2.13424,0.88401c-1.54838-0.27826-3.19786,0.17176-4.39574,1.36965 c-1.19788,1.19788-1.64787,2.84735-1.3696,4.39573c0.1501,0.8352-0.18731,1.64982-0.88403,2.13427C9.84812,12.82148,9,14.30592,9,16 s0.84812,3.17852,2.13975,4.07663c0.69671,0.48445,1.03413,1.29907,0.88403,2.13428 c-0.27827,1.54836,0.17172,3.19778,1.3696,4.39566c1.19787,1.19787,2.84733,1.64783,4.3957,1.36958 c0.83521-0.15009,1.64983,0.18733,2.13427,0.88405C20.82144,30.15184,22.30592,31,24,31s3.17856-0.84816,4.07666-2.1398 c0.48444-0.69672,1.29906-1.03414,2.13427-0.88405c1.54837,0.27825,3.19782-0.1717,4.3957-1.36958 c1.19788-1.19788,1.64787-2.84731,1.3696-4.39566c-0.1501-0.83521,0.18731-1.64983,0.88403-2.13428 C38.15188,19.17852,39,17.69408,39,16z"></path> <circle fill="#C94949" cx="24" cy="16" r="7"></circle></g></svg>