<svg version="1.1" xmlns="http://www.w3.org/2000/svg" xmlns:xlink="http://www.w3.org/1999/xlink" x="0px" y="0px" viewBox="0 0 48 48" xml:space="preserve" width="48" height="48"><g class="nc-icon-wrapper"><path fill="#444444" d="M16,2H2v14h14V2z M14,14H4V4h10V14z"></path> <polygon fill="#444444" points="31,42 29,42 29,46 46,46 46,44 31,44 "></polygon> <rect x="6" y="6" fill="#444444" width="6" height="6"></rect> <path fill="#444444" d="M2,46h14V32H2V46z M4,34h10v10H4V34z"></path> <rect x="6" y="36" fill="#444444" width="6" height="6"></rect> <path fill="#444444" d="M32,2v14h14V2H32z M44,14H34V4h10V14z"></path> <rect x="36" y="6" fill="#444444" width="6" height="6"></rect> <rect x="42" y="18" fill="#444444" width="4" height="4"></rect> <rect x="2" y="26" fill="#444444" width="4" height="4"></rect> <polygon fill="#444444" points="23,18 15,18 15,20 25,20 25,16 25,14 27,14 27,10 25,10 23,10 21,10 21,6 23,6 23,8 30,8 30,2 28,2 28,6 25,6 25,2 24,2 20,2 19,2 19,12 23,12 23,14 19,14 19,16 23,16 "></polygon> <polygon fill="#444444" points="5,24 9,24 11,24 12,24 12,26 8,26 8,28 12,28 12,30 20,30 20,28 14,28 14,26 14,22 11,22 11,19 9,19 9,22 7,22 7,18 2,18 2,20 5,20 "></polygon> <polygon fill="#444444" points="24,42 24,37 20,37 20,33 18,33 18,39 22,39 22,42 18,42 18,44 22,44 22,46 27,46 27,44 24,44 "></polygon> <polygon fill="#444444" points="34,22 30,22 30,17 28,17 28,24 38,24 38,22 36,22 36,20 39,20 39,18 36,18 34,18 32,18 32,20 34,20 "></polygon> <polygon fill="#444444" points="32,40 35,40 35,42 39,42 39,40 39,38 39,35 35,35 35,38 32,38 32,35 30,35 30,38 28,38 28,30 26,30 26,28 24,28 24,22 17,22 17,26 19,26 19,24 22,24 22,28 22,32 26,32 26,38 26,40 28,40 30,40 "></polygon> <polygon fill="#444444" points="44,27 41,27 39,27 34,27 34,31 32,31 32,27 30,27 30,33 36,33 36,29 39,29 39,32 41,32 41,29 44,29 44,35 41,35 41,41 46,41 46,39 43,39 43,37 46,37 46,29 46,27 46,24 44,24 "></polygon></g></svg>