<svg version="1.1" xmlns="http://www.w3.org/2000/svg" xmlns:xlink="http://www.w3.org/1999/xlink" x="0px" y="0px" viewBox="0 0 48 48" xml:space="preserve" width="48" height="48"><g class="nc-icon-wrapper"><path fill="#A67C52" d="M10,17c-3.85986,0-7-3.14014-7-7s3.14014-7,7-7s7,3.14014,7,7S13.85986,17,10,17z"></path> <circle fill="#DDBE99" cx="10" cy="10" r="4"></circle> <path fill="#A67C52" d="M38,17c-3.85986,0-7-3.14014-7-7s3.14014-7,7-7s7,3.14014,7,7S41.85986,17,38,17z"></path> <circle fill="#DDBE99" cx="38" cy="10" r="4"></circle> <path fill="#A67C52" d="M24,45C13.52344,45,5,36.47656,5,26S13.52344,7,24,7s19,8.52344,19,19S34.47656,45,24,45z"></path> <circle fill="#DDBE99" cx="24" cy="32" r="9"></circle> <path fill="#444444" d="M24,31c-0.37891,0-0.7251-0.21387-0.89453-0.55273l-2-4c-0.15479-0.31006-0.13818-0.67822,0.04395-0.97314 C21.33154,25.17969,21.65332,25,22,25h4c0.34668,0,0.66846,0.17969,0.85059,0.47412 c0.18213,0.29492,0.19873,0.66309,0.04395,0.97314l-2,4C24.7251,30.78613,24.37891,31,24,31z"></path> <path fill="#444444" d="M24,35c-0.55225,0-1-0.44775-1-1v-4c0-0.55225,0.44775-1,1-1s1,0.44775,1,1v4C25,34.55225,24.55225,35,24,35 z"></path> <path fill="#444444" d="M28,35h-8c-0.55225,0-1-0.44775-1-1s0.44775-1,1-1h8c0.55225,0,1,0.44775,1,1S28.55225,35,28,35z"></path> <circle fill="#444444" cx="18" cy="19" r="2"></circle> <circle fill="#444444" cx="30" cy="19" r="2"></circle></g></svg>