<svg version="1.1" xmlns="http://www.w3.org/2000/svg" xmlns:xlink="http://www.w3.org/1999/xlink" x="0px" y="0px" viewBox="0 0 48 48" xml:space="preserve" width="48" height="48"><g class="nc-icon-wrapper"><path fill="#A58C21" d="M30,40c0,3.31371-2.68629,6-6,6s-6-2.68629-6-6H30z"></path> <path fill="#EFD358" d="M42,41H6c-0.36816,0-0.70654-0.20312-0.88086-0.52734c-0.17432-0.3252-0.15527-0.71973,0.04834-1.02637 C5.20557,39.38867,9,33.58203,9,26V16C9,7.72852,15.729,1,24,1s15,6.72852,15,15v10c0,7.60938,3.79395,13.3877,3.83203,13.44531 c0.20459,0.30664,0.22363,0.70117,0.0498,1.02637C42.70752,40.79688,42.36865,41,42,41z"></path></g></svg>