<svg version="1.1" xmlns="http://www.w3.org/2000/svg" xmlns:xlink="http://www.w3.org/1999/xlink" x="0px" y="0px" viewBox="0 0 48 48" xml:space="preserve" width="48" height="48"><g class="nc-icon-wrapper"><path fill="#BADEFC" d="M45,8H14c-1.105,0-2,0.895-2,2v24c0,1.105,0.895,2,2,2h11.697l11.748,7.832C37.612,43.943,37.806,44,38,44 c0.162,0,0.324-0.039,0.472-0.118C38.797,43.708,39,43.369,39,43v-7h6c1.105,0,2-0.895,2-2V10C47,8.895,46.105,8,45,8z"></path> <path fill="#43A6DD" d="M37,2H3C1.895,2,1,2.895,1,4v24c0,1.105,0.895,2,2,2h6v9c0,0.375,0.209,0.718,0.542,0.89 C9.687,39.964,9.844,40,10,40c0.205,0,0.408-0.062,0.581-0.187L24.32,30H37c1.105,0,2-0.895,2-2V4C39,2.895,38.105,2,37,2z"></path></g></svg>