<svg version="1.1" xmlns="http://www.w3.org/2000/svg" xmlns:xlink="http://www.w3.org/1999/xlink" x="0px" y="0px" viewBox="0 0 48 48" xml:space="preserve" width="48" height="48"><g class="nc-icon-wrapper"><path fill="#444444" d="M24,47C11.31787,47,1,36.68213,1,24S11.31787,1,24,1s23,10.31787,23,23S36.68213,47,24,47z"></path> <path fill="#FFFFFF" d="M42.31842,32C43.39374,29.54755,44,26.84473,44,24c0-11.02795-8.97205-20-20-20C12.97211,4,4,12.97205,4,24 c0,2.84473,0.60626,5.54755,1.68158,8H42.31842z"></path> <path fill="#444444" d="M26.12278,26.12278c-1.16963,1.16963-3.07301,1.16963-4.24264,0C20.71051,24.95315,18,18,18,18 s6.95315,2.71051,8.12278,3.88014C27.29241,23.04977,27.29241,24.95315,26.12278,26.12278z"></path> <path fill="#E86C60" d="M24,9c-4.1355,0-7.8855,1.68225-10.60162,4.39838l2.82709,2.82709C18.21729,14.23364,20.96729,13,24,13 c6.06543,0,11,4.93457,11,11h4C39,15.729,32.271,9,24,9z"></path> <path fill="#EFD358" d="M9,24h4c0-3.03271,1.23364-5.78271,3.22546-7.77454l-2.82709-2.82709C10.68225,16.1145,9,19.8645,9,24z"></path></g></svg>