<svg version="1.1" xmlns="http://www.w3.org/2000/svg" xmlns:xlink="http://www.w3.org/1999/xlink" x="0px" y="0px" viewBox="0 0 48 48" xml:space="preserve" width="48" height="48"><g class="nc-icon-wrapper"><path fill="#43A6DD" d="M22,27c-0.25586,0-0.51172-0.09766-0.70703-0.29297c-0.39062-0.39062-0.39062-1.02344,0-1.41406l22-22 c0.39062-0.39062,1.02344-0.39062,1.41406,0s0.39062,1.02344,0,1.41406l-22,22C22.51172,26.90234,22.25586,27,22,27z"></path> <path fill="#B3B3B3" d="M22,47C10.4209,47,1,37.5791,1,26S10.4209,5,22,5c2.14648,0,4.26367,0.32227,6.29102,0.95898 c0.52637,0.16504,0.81934,0.72656,0.6543,1.25391c-0.16504,0.52539-0.72656,0.81836-1.25391,0.6543C25.8584,7.29199,23.94336,7,22,7 C11.52344,7,3,15.52344,3,26s8.52344,19,19,19s19-8.52344,19-19c0-1.94336-0.29199-3.85938-0.86816-5.69531 c-0.16504-0.52734,0.12793-1.08887,0.6543-1.25391c0.52734-0.16699,1.08887,0.12793,1.25391,0.6543 C42.67676,21.73535,43,23.85352,43,26C43,37.5791,33.5791,47,22,47z"></path></g></svg>