<svg version="1.1" xmlns="http://www.w3.org/2000/svg" xmlns:xlink="http://www.w3.org/1999/xlink" x="0px" y="0px" viewBox="0 0 48 48" xml:space="preserve" width="48" height="48"><g class="nc-icon-wrapper"><path fill="#42A6DD" d="M40,31H8c-0.55225,0-1-0.44775-1-1V6c0-0.55225,0.44775-1,1-1h32c0.36865,0,0.70752,0.20312,0.88184,0.52832 c0.17383,0.3252,0.15479,0.71973-0.0498,1.02637L33.20166,18l7.63037,11.44531c0.20459,0.30664,0.22363,0.70117,0.0498,1.02637 C40.70752,30.79688,40.36865,31,40,31z"></path> <path fill="#444444" d="M8,47c-0.55225,0-1-0.44775-1-1V2c0-0.55225,0.44775-1,1-1s1,0.44775,1,1v44C9,46.55225,8.55225,47,8,47z"></path></g></svg>