<svg version="1.1" xmlns="http://www.w3.org/2000/svg" xmlns:xlink="http://www.w3.org/1999/xlink" x="0px" y="0px" viewBox="0 0 48 48" xml:space="preserve" width="48" height="48"><g class="nc-icon-wrapper"><path fill="#EEBC99" d="M38,45H24c-2.7168,0-5.53418-0.66113-7.93311-1.86035l-4.51416-2.25684 C11.21387,40.71289,11,40.36719,11,39.98828v-14c0-0.23438,0.08203-0.46094,0.23193-0.64062L21,13.62598v-7.6377 c0-1.07812,0.55908-2.04199,1.49561-2.58008c0.93066-0.53418,2.03809-0.53125,2.96191,0.00879 C28.88086,5.41504,29,10.45996,29,13.98828V19h11c2.75684,0,5,2.2373,5,4.98828c0,0.04102-0.00244,0.08301-0.00781,0.12402 l-1.99268,15.94141C42.96436,42.78711,40.73535,45,38,45z"></path> <path fill="#5A7A84" d="M12,45H4c-0.55225,0-1-0.44727-1-1V22c0-0.55273,0.44775-1,1-1h8c0.55225,0,1,0.44727,1,1v22 C13,44.55273,12.55225,45,12,45z"></path></g></svg>