<svg version="1.1" xmlns="http://www.w3.org/2000/svg" xmlns:xlink="http://www.w3.org/1999/xlink" x="0px" y="0px" viewBox="0 0 48 48" xml:space="preserve" width="48" height="48"><g class="nc-icon-wrapper"><path fill="#B3B3B3" d="M30.71751,30.71751l-9.89949,9.89949c-3.70403,3.70403-9.731,3.70403-13.43503,0 c-3.70402-3.70402-3.70402-9.731,0-13.43503l9.8995-9.89949c3.70402-3.70402,9.731-3.70402,13.43503,0 S34.42154,27.01349,30.71751,30.71751z M9.50431,29.3033c-2.53426,2.53426-2.53426,6.65813,0,9.19239s6.65813,2.53426,9.19239,0 l9.89949-9.8995c2.53426-2.53426,2.53426-6.65813,0-9.19239s-6.65813-2.53426-9.19239,0L9.50431,29.3033z"></path> <path fill="#D8D8D8" d="M27.18198,7.38299l-9.89949,9.8995c-3.70402,3.70402-3.70402,9.731,0,13.43503 c1.77851,1.77851,4.09284,2.69365,6.42814,2.76425l4.88557-4.88557c-2.53426,2.53426-6.65813,2.53426-9.19239,0 s-2.53426-6.65813,0-9.19239l9.89949-9.8995c2.53426-2.53426,6.65813-2.53426,9.19239,0s2.53426,6.65813,0,9.19239l-5.00831,5.00831 c0.07893,2.53007-0.8428,5.08544-2.76986,7.0125l9.89949-9.89949c3.70403-3.70403,3.70403-9.731,0-13.43503 C36.91299,3.67897,30.88601,3.67897,27.18198,7.38299z"></path> <path fill="#999999" d="M24.28938,14.51824l-4.88557,4.88557c1.29937-1.29937,3.01651-1.92771,4.72308-1.89465l2.60504-2.60504 C25.93548,14.6664,25.11379,14.54318,24.28938,14.51824z"></path></g></svg>