<svg version="1.1" xmlns="http://www.w3.org/2000/svg" xmlns:xlink="http://www.w3.org/1999/xlink" x="0px" y="0px" viewBox="0 0 48 48" xml:space="preserve" width="48" height="48"><g class="nc-icon-wrapper"><path fill="#B3B3B3" d="M17,19v-8c0-3.85986,3.14014-7,7-7s7,3.14014,7,7v3h4v-3c0-6.06543-4.93457-11-11-11S13,4.93457,13,11v8H17z "></path> <path fill="#EFD358" d="M39,48H9c-1.10457,0-2-0.89543-2-2V20c0-1.10457,0.89543-2,2-2h30c1.10457,0,2,0.89543,2,2v26 C41,47.10457,40.10457,48,39,48z"></path> <path fill="#A58C21" d="M28,30c0-2.20917-1.79083-4-4-4c-2.20911,0-4,1.79083-4,4c0,1.47681,0.80945,2.75232,2,3.44519V40h4 v-6.55481C27.19061,32.75226,28,31.47681,28,30z"></path></g></svg>