<svg version="1.1" xmlns="http://www.w3.org/2000/svg" xmlns:xlink="http://www.w3.org/1999/xlink" x="0px" y="0px" viewBox="0 0 48 48" xml:space="preserve" width="48" height="48"><g class="nc-icon-wrapper"><path fill="#444444" d="M7.46311,45.08282L6.38028,42l-3.08282-1.08282l-0.6614,3.66536 c-0.12386,0.68639,0.47529,1.28554,1.16168,1.16169L7.46311,45.08282z"></path> <polygon fill="#EAD8C5" points="15.08731,43.70703 13.31778,35.0625 4.67325,33.29297 3.29746,40.91718 7.46311,45.08282 "></polygon> <path fill="#E86C60" d="M45.08731,12.29297l-9-9c-0.39062-0.39062-1.02344-0.39062-1.41406,0l-6,6l10.41406,10.41406l6-6 C45.47794,13.31641,45.47794,12.68359,45.08731,12.29297z"></path> <polygon fill="#EFD358" points="28.67325,9.29297 4.67325,33.29297 10.63028,39.25 34.58862,15.20833 "></polygon> <rect x="7.51323" y="25.42159" transform="matrix(0.70711 -0.70711 0.70711 0.70711 -13.40816 25.83688)" fill="#D8BB44" width="33.94112" height="7.36385"></rect> <rect x="32.88039" y="7.13615" transform="matrix(0.70711 -0.70711 0.70711 0.70711 -0.32974 28.20393)" fill="#C9514B" width="1.99979" height="14.72771"></rect></g></svg>