<svg version="1.1" xmlns="http://www.w3.org/2000/svg" xmlns:xlink="http://www.w3.org/1999/xlink" x="0px" y="0px" viewBox="0 0 48 48" xml:space="preserve" width="48" height="48"><g class="nc-icon-wrapper"><path fill="#B3B3B3" d="M45,10H14V6h31c0.55228,0,1,0.44772,1,1v2C46,9.55229,45.55228,10,45,10z"></path> <path fill="#43A6DD" d="M14,10H3c-0.55228,0-1-0.44771-1-1V7c0-0.55228,0.44772-1,1-1h11V10z"></path> <path fill="#B3B3B3" d="M45,26H32v-4h13c0.55228,0,1,0.44772,1,1v2C46,25.55228,45.55228,26,45,26z"></path> <path fill="#43A6DD" d="M32,26H3c-0.55228,0-1-0.44772-1-1v-2c0-0.55228,0.44772-1,1-1h29V26z"></path> <path fill="#B3B3B3" d="M45,42H14v-4h31c0.55228,0,1,0.44772,1,1v2C46,41.55228,45.55228,42,45,42z"></path> <path fill="#43A6DD" d="M14,42H3c-0.55228,0-1-0.44772-1-1v-2c0-0.55228,0.44772-1,1-1h11V42z"></path> <path fill="#E6E6E6" d="M19,15h-8c-0.55225,0-1-0.44775-1-1V2c0-0.55225,0.44775-1,1-1h8c0.55225,0,1,0.44775,1,1v12 C20,14.55225,19.55225,15,19,15z"></path> <path fill="#E6E6E6" d="M37,31h-8c-0.55225,0-1-0.44775-1-1V18c0-0.55225,0.44775-1,1-1h8c0.55225,0,1,0.44775,1,1v12 C38,30.55225,37.55225,31,37,31z"></path> <path fill="#E6E6E6" d="M19,47h-8c-0.55225,0-1-0.44775-1-1V34c0-0.55225,0.44775-1,1-1h8c0.55225,0,1,0.44775,1,1v12 C20,46.55225,19.55225,47,19,47z"></path> <rect x="20" y="6" fill="#898989" width="3" height="4"></rect> <rect x="38" y="22" fill="#898989" width="3" height="4"></rect> <rect x="20" y="38" fill="#898989" width="3" height="4"></rect></g></svg>