<svg version="1.1" xmlns="http://www.w3.org/2000/svg" xmlns:xlink="http://www.w3.org/1999/xlink" x="0px" y="0px" viewBox="0 0 48 48" xml:space="preserve" width="48" height="48"><g class="nc-icon-wrapper"><path fill="#5A7A84" d="M46,19h-5.76807c-0.31299-1.01953-0.7207-2.00488-1.21777-2.94336l4.07764-4.07715 c0.1875-0.1875,0.29297-0.44141,0.29297-0.70703s-0.10547-0.51953-0.29297-0.70703L37.43506,4.9082 c-0.39062-0.39062-1.02344-0.39062-1.41406,0l-4.07812,4.07715C31.00488,8.48926,30.01953,8.08105,29,7.76855V2 c0-0.55273-0.44775-1-1-1h-8c-0.55225,0-1,0.44727-1,1v5.76855c-1.01953,0.3125-2.00488,0.7207-2.94287,1.2168L11.979,4.9082 c-0.39062-0.39062-1.02344-0.39062-1.41406,0L4.9082,10.56543c-0.1875,0.1875-0.29297,0.44141-0.29297,0.70703 s0.10547,0.51953,0.29297,0.70703l4.07764,4.07715C8.48877,16.99512,8.08105,17.98047,7.76807,19H2c-0.55225,0-1,0.44727-1,1v8 c0,0.55273,0.44775,1,1,1h5.76807c0.31299,1.01953,0.7207,2.00488,1.21777,2.94336L4.9082,36.02051 c-0.1875,0.1875-0.29297,0.44141-0.29297,0.70703s0.10547,0.51953,0.29297,0.70703l5.65674,5.65723 c0.39062,0.39062,1.02344,0.39062,1.41406,0l4.07812-4.07715c0.93799,0.49609,1.92334,0.9043,2.94287,1.2168V46 c0,0.55273,0.44775,1,1,1h8c0.55225,0,1-0.44727,1-1v-5.76855c1.01953-0.3125,2.00488-0.7207,2.94287-1.2168L36.021,43.0918 c0.39062,0.39062,1.02344,0.39062,1.41406,0l5.65674-5.65723c0.1875-0.1875,0.29297-0.44141,0.29297-0.70703 s-0.10547-0.51953-0.29297-0.70703l-4.07764-4.07715c0.49707-0.93848,0.90479-1.92383,1.21777-2.94336H46c0.55225,0,1-0.44727,1-1 v-8C47,19.44727,46.55225,19,46,19z M24,31c-3.86597,0-7-3.13403-7-7c0-3.86603,3.13403-7,7-7c3.86603,0,7,3.13397,7,7 C31,27.86597,27.86603,31,24,31z"></path> <path fill="#335262" d="M24,13c-6.07513,0-11,4.92487-11,11s4.92487,11,11,11s11-4.92487,11-11S30.07513,13,24,13z M24,31 c-3.86597,0-7-3.13403-7-7c0-3.86603,3.13403-7,7-7c3.86603,0,7,3.13397,7,7C31,27.86597,27.86603,31,24,31z"></path></g></svg>