<?xml version="1.0" encoding="iso-8859-1"?>
<!-- Generator: Adobe Illustrator 16.0.0, SVG Export Plug-In . SVG Version: 6.00 Build 0)  -->
<!DOCTYPE svg PUBLIC "-//W3C//DTD SVG 1.1//EN" "http://www.w3.org/Graphics/SVG/1.1/DTD/svg11.dtd">
<svg version="1.1" id="Capa_1" xmlns="http://www.w3.org/2000/svg" xmlns:xlink="http://www.w3.org/1999/xlink" x="0px" y="0px"
	 width="865.251px" height="865.25px" viewBox="0 0 865.251 865.25" style="enable-background:new 0 0 865.251 865.25;"
	 xml:space="preserve">
<g>
	<g>
		<path d="M802.926,627.625c-15.4,1-29,7.8-38.8,18.2l-40.601-35.7l-89.399,67.9l57.1,50.2c-10.8,11.399-17,27.1-15.9,43.899
			c2.101,32.2,29.9,56.7,62.101,54.601c32.2-2.101,56.7-29.9,54.7-62.101c-0.601-8.8-3.101-17.1-7-24.3c7.8,3.1,16.399,4.6,25.399,4
			c32.2-2.1,56.7-29.9,54.601-62.1C863.025,650.026,835.226,625.526,802.926,627.625z"/>
		<path d="M663.426,186.125c21.899,21.9,40.399,46.5,55.2,73.4l45.6-40.1c9.8,10.4,23.4,17.2,38.8,18.2
			c32.2,2.1,60-22.4,62.101-54.6c2.1-32.2-22.4-60-54.601-62.1c-8.899-0.6-17.6,0.9-25.399,4c4-7.3,6.5-15.5,7-24.3
			c2.1-32.2-22.4-60-54.7-62.1c-32.2-2.1-60,22.4-62.101,54.6c-1.1,16.9,5.101,32.5,15.9,43.9l-41.3,36.3
			C654.525,177.525,659.025,181.725,663.426,186.125z"/>
		<path d="M712.126,574.826c7.5-5.7,11.899-14.5,11.899-23.9v-134c0-48.199-11.7-93.6-32.399-133.7
			c-17.101-33-40.301-62.4-68.101-86.6c-51.1-44.4-117.899-71.2-190.899-71.3c-73,0-139.7,26.9-190.9,71.3
			c-27.8,24.2-51.1,53.5-68.1,86.6c-20.7,40-32.4,85.5-32.4,133.7v134c0,9.4,4.4,18.2,11.9,23.9l15.4,11.7l89.4,67.899l17.8,13.5
			v71.601c0,16.6,13.4,30,30,30h127h127c16.6,0,30-13.4,30-30v-71.7l17.8-13.5l89.4-67.9L712.126,574.826z M261.426,537.326
			c-5.5,0-10.2-2.9-12.8-7.2c-0.5-0.899-1-1.8-1.301-2.7c-2.399-6.6,0.101-15.899,1.301-22.6c1.399-7.6,3.399-15.1,6.1-22.3
			c5.4-14.4,13.7-27.9,24.9-38.5c12.199-11.5,27.5-19.5,43.6-24.201c1.2-0.4,2.5-0.7,3.8-1c15.7-4.2,32.3-5.6,48.5-5
			c8,0.3,14.4,6.9,14.4,15v44.901v48.699c0,2.101-0.4,4-1.2,5.801c-0.4,0.899-0.8,1.699-1.4,2.5c-2.699,4-7.3,6.6-12.399,6.6
			H261.426z M421.525,621.125c0,4.4-3.6,8-8,8h-29.399c-6.4,0-10.2-7-6.7-12.399l29.399-45.101c4.301-6.7,14.7-3.6,14.7,4.4V621.125
			z M481.025,629.125h-29.399c-4.4,0-8-3.6-8-8v-45.1c0-8,10.399-11,14.699-4.4l29.4,45.101
			C491.226,622.026,487.325,629.125,481.025,629.125z M617.926,527.326c-0.3,1-0.8,1.9-1.3,2.7c-2.601,4.3-7.4,7.2-12.801,7.2
			h-113.5c-5.199,0-9.699-2.601-12.399-6.601c-0.5-0.8-1-1.7-1.4-2.5c-0.8-1.8-1.2-3.8-1.2-5.8v-48.7v-44.9c0-8,6.301-14.7,14.4-15
			c16.2-0.601,32.8,0.8,48.5,5c1.3,0.3,2.5,0.699,3.8,1c16.101,4.699,31.4,12.7,43.601,24.2c11.3,10.601,19.5,24.101,24.899,38.5
			c2.7,7.2,4.7,14.7,6.101,22.301C617.825,511.425,620.226,520.726,617.926,527.326z"/>
		<path d="M141.625,610.125l-40.6,35.7c-9.8-10.4-23.4-17.2-38.8-18.2c-32.2-2.1-60,22.4-62.1,54.601c-2.1,32.199,22.4,60,54.6,62.1
			c8.9,0.6,17.6-0.9,25.4-4c-4,7.3-6.5,15.5-7,24.3c-2.1,32.2,22.4,60,54.7,62.101c32.2,2.1,60-22.4,62.1-54.601
			c1.1-16.899-5.1-32.5-15.9-43.899l57.1-50.2L141.625,610.125z"/>
		<path d="M62.226,237.625c15.4-1,29-7.8,38.8-18.2l45.6,40.1c14.8-26.9,33.3-51.5,55.2-73.4c4.4-4.4,8.9-8.6,13.5-12.7l-41.3-36.3
			c10.8-11.4,17-27.1,15.9-43.9c-2.1-32.2-29.9-56.7-62.1-54.6c-32.2,2.1-56.7,29.9-54.7,62.1c0.6,8.8,3.1,17.1,7,24.3
			c-7.8-3.1-16.4-4.6-25.4-4c-32.2,2.1-56.7,29.9-54.6,62.1C2.125,215.225,29.926,239.725,62.226,237.625z"/>
	</g>
</g>
<g>
</g>
<g>
</g>
<g>
</g>
<g>
</g>
<g>
</g>
<g>
</g>
<g>
</g>
<g>
</g>
<g>
</g>
<g>
</g>
<g>
</g>
<g>
</g>
<g>
</g>
<g>
</g>
<g>
</g>
</svg>
