<svg version="1.1" xmlns="http://www.w3.org/2000/svg" xmlns:xlink="http://www.w3.org/1999/xlink" x="0px" y="0px" viewBox="0 0 48 48" xml:space="preserve" width="48" height="48"><g class="nc-icon-wrapper"><path fill="none" d="M30,14.79242V15c0,0.55231-0.44769,1-1,1H19c-0.55231,0-1-0.44769-1-1v-0.20758 C16.72144,15.62848,15.62848,16.72144,14.79242,18H15c0.55231,0,1,0.44769,1,1v10c0,0.55231-0.44769,1-1,1h-0.20758 c0.83606,1.27856,1.92902,2.37152,3.20758,3.20758V33c0-0.55231,0.44769-1,1-1h10c0.55231,0,1,0.44769,1,1v0.20758 c1.27856-0.83606,2.37152-1.92902,3.20758-3.20758H33c-0.55231,0-1-0.44769-1-1V19c0-0.55231,0.44769-1,1-1h0.20758 C32.37152,16.72144,31.27856,15.62848,30,14.79242z"></path> <path fill="#EA9860" d="M18,14.79242V3.88116C11.23004,5.89752,5.89752,11.23004,3.88116,18h10.91125 C15.62848,16.72144,16.72144,15.62848,18,14.79242z"></path> <path fill="#EA9860" d="M33.20758,18h10.91125C42.10248,11.23004,36.76996,5.89752,30,3.88116v10.91125 C31.27856,15.62848,32.37152,16.72144,33.20758,18z"></path> <path fill="#EA9860" d="M14.79242,30H3.88116C5.89752,36.76996,11.23004,42.10248,18,44.11884V33.20758 C16.72144,32.37152,15.62848,31.27856,14.79242,30z"></path> <path fill="#EA9860" d="M30,33.20758v10.91125C36.76996,42.10248,42.10248,36.76996,44.11884,30H33.20758 C32.37152,31.27856,31.27856,32.37152,30,33.20758z"></path> <path fill="#E6E6E6" d="M14.79242,18H3.88116H2c-0.55231,0-1,0.44769-1,1v10c0,0.55231,0.44769,1,1,1h1.88116h10.91125 C13.6629,28.27258,13,26.21356,13,24S13.6629,19.72742,14.79242,18z"></path> <path fill="#E6E6E6" d="M24,35c-2.21356,0-4.27258-0.6629-6-1.79242v10.91125V46c0,0.55231,0.44769,1,1,1h10 c0.55231,0,1-0.44769,1-1v-1.88116V33.20758C28.27258,34.3371,26.21356,35,24,35z"></path> <path fill="#E6E6E6" d="M46,18h-1.88116H33.20758C34.3371,19.72742,35,21.78644,35,24s-0.6629,4.27258-1.79242,6h10.91125H46 c0.55231,0,1-0.44769,1-1V19C47,18.44769,46.55231,18,46,18z"></path> <path fill="#E6E6E6" d="M29,1H19c-0.55231,0-1,0.44769-1,1v1.88116v10.91125C19.72742,13.6629,21.78644,13,24,13 s4.27258,0.6629,6,1.79242V3.88116V2C30,1.44769,29.55231,1,29,1z"></path></g></svg>