<svg version="1.1" xmlns="http://www.w3.org/2000/svg" xmlns:xlink="http://www.w3.org/1999/xlink" x="0px" y="0px" viewBox="0 0 48 48" xml:space="preserve" width="48" height="48"><g class="nc-icon-wrapper"><path fill="#444444" d="M37,47H11c-2.20914,0-4-1.79086-4-4V10c0-0.55229,0.44772-1,1-1h32c0.55228,0,1,0.44771,1,1v33 C41,45.20914,39.20914,47,37,47z"></path> <path fill="#282828" d="M24,39c-0.55273,0-1-0.44775-1-1V20c0-0.55225,0.44727-1,1-1s1,0.44775,1,1v18 C25,38.55225,24.55273,39,24,39z"></path> <path fill="#282828" d="M16,39c-0.55273,0-1-0.44775-1-1V20c0-0.55225,0.44727-1,1-1s1,0.44775,1,1v18 C17,38.55225,16.55273,39,16,39z"></path> <path fill="#282828" d="M32,39c-0.55273,0-1-0.44775-1-1V20c0-0.55225,0.44727-1,1-1s1,0.44775,1,1v18 C33,38.55225,32.55273,39,32,39z"></path> <path fill="#B3B3B3" d="M46,9H31V2c0-0.55225-0.44727-1-1-1H18c-0.55273,0-1,0.44775-1,1v7H2c-0.55273,0-1,0.44775-1,1 s0.44727,1,1,1h44c0.55273,0,1-0.44775,1-1S46.55273,9,46,9z M19,3h10v6H19V3z"></path></g></svg>