<svg version="1.1" xmlns="http://www.w3.org/2000/svg" xmlns:xlink="http://www.w3.org/1999/xlink" x="0px" y="0px" viewBox="0 0 48 48" xml:space="preserve" width="48" height="48"><g class="nc-icon-wrapper"><path fill="#B3B3B3" d="M42,33c-0.552,0-1-0.448-1-1c0-7.995-5.437-14.812-13.221-16.579c-0.539-0.122-0.876-0.658-0.754-1.196 c0.122-0.539,0.661-0.876,1.196-0.754C36.923,15.445,43,23.065,43,32C43,32.552,42.552,33,42,33z"></path> <path fill="#B3B3B3" d="M6,33c-0.552,0-1-0.448-1-1c0-8.935,6.077-16.555,14.778-18.529c0.537-0.122,1.075,0.215,1.196,0.754 c0.123,0.539-0.215,1.074-0.754,1.196C12.437,17.188,7,24.005,7,32C7,32.552,6.552,33,6,33z"></path> <path fill="#B3B3B3" d="M20,13H8c-0.552,0-1-0.448-1-1s0.448-1,1-1h12c0.552,0,1,0.448,1,1S20.552,13,20,13z"></path> <path fill="#B3B3B3" d="M40,13H28c-0.552,0-1-0.448-1-1s0.448-1,1-1h12c0.552,0,1,0.448,1,1S40.552,13,40,13z"></path> <circle fill="#FFFFFF" cx="6" cy="12" r="4"></circle> <path fill="#43A6DD" d="M6,17c-2.757,0-5-2.243-5-5s2.243-5,5-5s5,2.243,5,5S8.757,17,6,17z M6,9c-1.654,0-3,1.346-3,3s1.346,3,3,3 s3-1.346,3-3S7.654,9,6,9z"></path> <circle fill="#FFFFFF" cx="42" cy="12" r="4"></circle> <path fill="#43A6DD" d="M42,17c-2.757,0-5-2.243-5-5s2.243-5,5-5s5,2.243,5,5S44.757,17,42,17z M42,9c-1.654,0-3,1.346-3,3 s1.346,3,3,3s3-1.346,3-3S43.654,9,42,9z"></path> <rect x="20" y="8" fill="#E6E6E6" width="8" height="8"></rect> <path fill="#335262" d="M28,17h-8c-0.552,0-1-0.448-1-1V8c0-0.552,0.448-1,1-1h8c0.552,0,1,0.448,1,1v8C29,16.552,28.552,17,28,17z M21,15h6V9h-6V15z"></path> <rect x="2" y="32" fill="#E6E6E6" width="8" height="8"></rect> <path fill="#335262" d="M10,41H2c-0.552,0-1-0.448-1-1v-8c0-0.552,0.448-1,1-1h8c0.552,0,1,0.448,1,1v8C11,40.552,10.552,41,10,41z M3,39h6v-6H3V39z"></path> <rect x="38" y="32" fill="#E6E6E6" width="8" height="8"></rect> <path fill="#335262" d="M46,41h-8c-0.552,0-1-0.448-1-1v-8c0-0.552,0.448-1,1-1h8c0.552,0,1,0.448,1,1v8C47,40.552,46.552,41,46,41z M39,39h6v-6h-6V39z"></path></g></svg>