<svg version="1.1" xmlns="http://www.w3.org/2000/svg" xmlns:xlink="http://www.w3.org/1999/xlink" x="0px" y="0px" viewBox="0 0 48 48" xml:space="preserve" width="48" height="48"><g class="nc-icon-wrapper"><path fill="#E6E6E6" d="M47,5c0-1.105-0.895-2-2-2H3C1.895,3,1,3.895,1,5v8h46V5z"></path> <circle fill="#72C472" cx="20" cy="8" r="2"></circle> <circle fill="#EFD358" cx="13" cy="8" r="2"></circle> <circle fill="#E86C60" cx="6" cy="8" r="2"></circle> <path fill="#E6E6E6" d="M15,13v32h30c1.105,0,2-0.895,2-2V13H15z"></path> <path fill="#444444" d="M1,13v30c0,1.105,0.895,2,2,2h12V13H1z"></path> <rect x="1" y="13" fill="#43A6DD" width="46" height="4"></rect> <path fill="#B3B3B3" d="M42,31H20c-0.552,0-1-0.448-1-1v-8c0-0.552,0.448-1,1-1h22c0.552,0,1,0.448,1,1v8C43,30.552,42.552,31,42,31 z"></path> <path fill="#B3B3B3" d="M42,36H20c-0.552,0-1-0.448-1-1l0,0c0-0.552,0.448-1,1-1h22c0.552,0,1,0.448,1,1l0,0 C43,35.552,42.552,36,42,36z"></path> <path fill="#B3B3B3" d="M42,41H20c-0.552,0-1-0.448-1-1l0,0c0-0.552,0.448-1,1-1h22c0.552,0,1,0.448,1,1l0,0 C43,40.552,42.552,41,42,41z"></path></g></svg>