<svg version="1.1" xmlns="http://www.w3.org/2000/svg" xmlns:xlink="http://www.w3.org/1999/xlink" x="0px" y="0px" viewBox="0 0 48 48" xml:space="preserve" width="48" height="48"><g class="nc-icon-wrapper"><polygon fill="#87613E" points="38,3 10,3 2,12 2,25 46,25 46,12 "></polygon> <path fill="#87613E" d="M46,26H2c-0.55225,0-1-0.44727-1-1V12c0-0.24512,0.08984-0.48145,0.25244-0.66406l8-9 C9.44238,2.12207,9.71436,2,10,2h28c0.28564,0,0.55762,0.12207,0.74756,0.33594l8,9C46.91016,11.51855,47,11.75488,47,12v13 C47,25.55273,46.55225,26,46,26z M3,24h42V12.37988L37.55078,4H10.44922L3,12.37988V24z"></path> <path fill="#C19F85" d="M45,45H3c-1.10457,0-2-0.89543-2-2V12c0-0.55229,0.44772-1,1-1h44c0.55228,0,1,0.44771,1,1v31 C47,44.10457,46.10457,45,45,45z"></path> <rect x="1" y="27" fill="#A67C52" width="46" height="2"></rect> <path fill="#EFD358" d="M29,20H19c-0.55225,0-1-0.44727-1-1s0.44775-1,1-1h10c0.55225,0,1,0.44727,1,1S29.55225,20,29,20z"></path> <path fill="#EFD358" d="M29,38H19c-0.55225,0-1-0.44727-1-1s0.44775-1,1-1h10c0.55225,0,1,0.44727,1,1S29.55225,38,29,38z"></path> <rect x="7" y="7" fill="#E6E6E6" width="34" height="4"></rect> <rect x="10" y="4" fill="#CCCCCC" width="28" height="3"></rect></g></svg>