<svg version="1.1" xmlns="http://www.w3.org/2000/svg" xmlns:xlink="http://www.w3.org/1999/xlink" x="0px" y="0px" viewBox="0 0 48 48" xml:space="preserve" width="48" height="48"><g class="nc-icon-wrapper"><path fill="#EFD358" d="M42,47H6c-0.298,0-0.58-0.133-0.771-0.362c-0.189-0.23-0.268-0.532-0.212-0.825L9,24.906V14 c0-0.552,0.447-1,1-1h28c0.553,0,1,0.448,1,1v10.906l3.982,20.907c0.056,0.292-0.022,0.595-0.212,0.825 C42.58,46.867,42.298,47,42,47z"></path> <path fill="#87613E" d="M31,21c-0.553,0-1-0.448-1-1V9c0-3.309-2.691-6-6-6s-6,2.691-6,6v11c0,0.552-0.447,1-1,1s-1-0.448-1-1V9 c0-4.411,3.589-8,8-8s8,3.589,8,8v11C32,20.552,31.553,21,31,21z"></path></g></svg>