<svg version="1.1" xmlns="http://www.w3.org/2000/svg" xmlns:xlink="http://www.w3.org/1999/xlink" x="0px" y="0px" viewBox="0 0 48 48" xml:space="preserve" width="48" height="48"><g class="nc-icon-wrapper"><path fill="#C6C6C6" d="M10,6H6C5.44772,6,5,6.44772,5,7v3l6-1V7C11,6.44772,10.55229,6,10,6z"></path> <path fill="#E6E6E6" d="M43,9h-2l-2.44678-4.88239c-0.33911-0.6767-1.03113-1.10394-1.78802-1.10394h-9.5304 c-0.7569,0-1.44891,0.42725-1.78802,1.10394L23,9H5c-2.20917,0-4,1.79083-4,4v28c0,2.20917,1.79083,4,4,4h38 c2.20917,0,4-1.79083,4-4V13C47,10.79083,45.20917,9,43,9z"></path> <path fill="#666666" d="M43,45H5c-2.20914,0-4-1.79086-4-4V21h46v20C47,43.20914,45.20914,45,43,45z"></path> <path fill="#C6C6C6" d="M24,39c-6.61719,0-12-5.3833-12-12s5.38281-12,12-12s12,5.3833,12,12S30.61719,39,24,39z"></path> <circle fill="#666666" cx="24" cy="27" r="10"></circle> <circle fill="#444444" cx="24" cy="27" r="6"></circle> <path fill="#FFFFFF" d="M35,9h-6c-0.55228,0-1-0.44771-1-1V7c0-0.55228,0.44772-1,1-1h6c0.55228,0,1,0.44772,1,1v1 C36,8.55229,35.55228,9,35,9z"></path></g></svg>