<svg version="1.1" xmlns="http://www.w3.org/2000/svg" xmlns:xlink="http://www.w3.org/1999/xlink" x="0px" y="0px" viewBox="0 0 48 48" xml:space="preserve" width="48" height="48"><g class="nc-icon-wrapper"><path fill="#223E49" d="M15,36c-2.209,0-4,1.791-4,4s1.791,4,4,4s4-1.791,4-4S17.209,36,15,36z M15,42c-1.105,0-2-0.895-2-2 s0.895-2,2-2s2,0.895,2,2S16.105,42,15,42z"></path> <path fill="#223E49" d="M39,36c-2.209,0-4,1.791-4,4s1.791,4,4,4s4-1.791,4-4S41.209,36,39,36z M39,42c-1.105,0-2-0.895-2-2 s0.895-2,2-2s2,0.895,2,2S40.105,42,39,42z"></path> <path fill="#B3B3B3" d="M45.771,11.362C45.581,11.133,45.298,11,45,11H10.022L8.9,4.821C8.814,4.346,8.4,4,7.917,4H3 C2.448,4,2,4.448,2,5s0.448,1,1,1h4.082l4.935,27.179C12.103,33.654,12.517,34,13,34h28c0.48,0,0.893-0.341,0.982-0.813l4-21 C46.038,11.895,45.96,11.592,45.771,11.362z M42.839,18h-6.406l0.476-5h6.882L42.839,18z M11.656,20h6.101l0.476,5h-5.669L11.656,20 z M28,20h6.233l-0.476,5H28V20z M19.576,18L19.1,13H26v5H19.576z M26,20v5h-5.757l-0.476-5H26z M20.433,27H26v5h-5.091L20.433,27z M28,27h5.567l-0.476,5H28V27z M28,18v-5h6.9l-0.476,5H28z M36.243,20h6.215l-0.952,5h-5.739L36.243,20z M17.091,13l0.476,5h-6.274 l-0.908-5H17.091z M12.927,27h5.497l0.476,5h-5.065L12.927,27z M40.172,32H35.1l0.476-5h5.549L40.172,32z"></path></g></svg>