<svg version="1.1" xmlns="http://www.w3.org/2000/svg" xmlns:xlink="http://www.w3.org/1999/xlink" x="0px" y="0px" viewBox="0 0 48 48" xml:space="preserve" width="48" height="48"><g class="nc-icon-wrapper"><path fill="#E6E6E6" d="M24,47C11.31787,47,1,36.68213,1,24S11.31787,1,24,1s23,10.31787,23,23S36.68213,47,24,47z"></path> <path fill="#E86C60" d="M18.80859,19.44092l-4.24268,12.72803c-0.11963,0.35938-0.02637,0.75586,0.2417,1.02344 c0.19043,0.19092,0.44629,0.29297,0.70703,0.29297c0.10596,0,0.2124-0.0166,0.31641-0.05127l12.72803-4.24268 c0.14917-0.0498,0.28235-0.1333,0.39069-0.24164l-9.89954-9.89954C18.94189,19.15857,18.8584,19.29175,18.80859,19.44092z"></path> <path fill="#42A6DD" d="M33.43408,15.83105c0.11963-0.35938,0.02637-0.75586-0.2417-1.02344 c-0.26807-0.26904-0.66504-0.36328-1.02344-0.2417l-12.72803,4.24268c-0.14917,0.0498-0.28235,0.1333-0.39069,0.24164 l9.89954,9.89954c0.10834-0.10834,0.19183-0.24152,0.24164-0.39069L33.43408,15.83105z"></path></g></svg>