<svg version="1.1" xmlns="http://www.w3.org/2000/svg" xmlns:xlink="http://www.w3.org/1999/xlink" x="0px" y="0px" viewBox="0 0 48 48" xml:space="preserve" width="48" height="48"><g class="nc-icon-wrapper"><path fill="#9BCED3" d="M33,16l-9,27c0.31055,0,0.60352-0.14404,0.79248-0.39014l20.43707-26.56824L45.20331,16H33z"></path> <polygon fill="#76B5B5" points="45.20331,16 37,3 33,16 "></polygon> <polygon fill="#BFDEE0" points="11,3 2.79669,16 15,16 "></polygon> <path fill="#9BCED3" d="M2.79669,16l-0.02625,0.04163l20.43707,26.56824C23.39648,42.85596,23.68945,43,24,43l-9-27H2.79669z"></path> <polygon fill="#9BCED3" points="24,3 11,3 15,16 "></polygon> <polygon fill="#76B5B5" points="15,16 24,43 33,16 "></polygon> <polygon fill="#9BCED3" points="37,3 24,3 33,16 "></polygon> <polygon fill="#BFDEE0" points="33,16 24,3 15,16 "></polygon></g></svg>