<svg version="1.1" xmlns="http://www.w3.org/2000/svg" xmlns:xlink="http://www.w3.org/1999/xlink" x="0px" y="0px" viewBox="0 0 48 48" xml:space="preserve" width="48" height="48"><g class="nc-icon-wrapper"><path fill="#D1B43D" d="M32,1c-4.333,0-6.789,3.595-8,6.18C22.789,4.595,20.333,1,16,1c-2.757,0-5,2.243-5,5s2.243,5,5,5h8h8 c2.757,0,5-2.243,5-5S34.757,1,32,1z M16,9c-1.654,0-3-1.346-3-3s1.346-3,3-3c3.745,0,5.786,3.924,6.603,6H16z M32,9h-6.606 C26.206,6.925,28.24,3,32,3c1.654,0,3,1.346,3,3S33.654,9,32,9z"></path> <path fill="#C94F49" d="M43,15H5v30c0,1.105,0.895,2,2,2h34c1.105,0,2-0.895,2-2V15z"></path> <path fill="#E86C60" d="M45,9H3c-1.105,0-2,0.895-2,2v6c0,1.105,0.895,2,2,2h42c1.105,0,2-0.895,2-2v-6C47,9.895,46.105,9,45,9z"></path> <rect x="19" y="9" fill="#EFD358" width="10" height="10"></rect> <rect x="19" y="19" fill="#D1B43D" width="10" height="28"></rect></g></svg>