<svg version="1.1" xmlns="http://www.w3.org/2000/svg" xmlns:xlink="http://www.w3.org/1999/xlink" x="0px" y="0px" viewBox="0 0 48 48" xml:space="preserve" width="48" height="48"><g class="nc-icon-wrapper"><path fill="#8680D8" d="M19,1H3C1.89543,1,1,1.89543,1,3v16c0,1.10457,0.89543,2,2,2h16c1.10457,0,2-0.89543,2-2V3 C21,1.89543,20.10457,1,19,1z"></path> <path fill="#8680D8" d="M45,1H29c-1.10457,0-2,0.89543-2,2v16c0,1.10457,0.89543,2,2,2h16c1.10457,0,2-0.89543,2-2V3 C47,1.89543,46.10457,1,45,1z"></path> <path fill="#8680D8" d="M19,27H3c-1.10457,0-2,0.89543-2,2v16c0,1.10457,0.89543,2,2,2h16c1.10457,0,2-0.89543,2-2V29 C21,27.89543,20.10457,27,19,27z"></path> <path fill="#8680D8" d="M45,27H29c-1.10457,0-2,0.89543-2,2v16c0,1.10457,0.89543,2,2,2h16c1.10457,0,2-0.89543,2-2V29 C47,27.89543,46.10457,27,45,27z"></path></g></svg>