<svg version="1.1" xmlns="http://www.w3.org/2000/svg" xmlns:xlink="http://www.w3.org/1999/xlink" x="0px" y="0px" viewBox="0 0 48 48" xml:space="preserve" width="48" height="48"><g class="nc-icon-wrapper"><path fill="#C9514B" d="M8,18V7c0-0.55228,0.44771-1,1-1h4c0.55229,0,1,0.44772,1,1v6.09091L8,18z"></path> <path fill="#E6E6E6" d="M24,3L7,18.11108v25.88843c0,1.10455,0.89545,2,2,2h30c1.10461,0,2-0.89545,2-2V18.11108L24,3z"></path> <path fill="#E86C60" d="M45.99951,23.99951c-0.23975,0-0.48047-0.08594-0.67236-0.25977L24,4.35107L2.67285,23.73975 c-0.40918,0.37109-1.0415,0.33984-1.4126-0.06738c-0.37158-0.40918-0.3418-1.04102,0.06689-1.41309l22-20 c0.38184-0.3457,0.96387-0.3457,1.3457,0l22,20c0.40869,0.37207,0.43848,1.00391,0.06689,1.41309 C46.54248,23.88916,46.27148,23.99951,45.99951,23.99951z"></path> <path fill="#A67C52" d="M28,33h-8c-0.55228,0-1,0.44772-1,1v12h10V34C29,33.44772,28.55228,33,28,33z"></path> <path fill="#43A6DD" d="M28,27h-8c-0.55228,0-1-0.44772-1-1v-6c0-0.55228,0.44772-1,1-1h8c0.55228,0,1,0.44772,1,1v6 C29,26.55228,28.55228,27,28,27z"></path> <path fill="#72C472" d="M14.31403,46C14.74866,45.09009,15,44.07587,15,43c0-3.86603-3.13397-7-7-7c-3.86597,0-7,3.13397-7,7 c0,1.07587,0.25134,2.09009,0.68597,3H14.31403z"></path> <path fill="#72C472" d="M46.31403,46C46.74866,45.09009,47,44.07587,47,43c0-3.86603-3.13397-7-7-7c-3.86597,0-7,3.13397-7,7 c0,1.07587,0.25134,2.09009,0.68597,3H46.31403z"></path></g></svg>