<svg version="1.1" xmlns="http://www.w3.org/2000/svg" xmlns:xlink="http://www.w3.org/1999/xlink" x="0px" y="0px" viewBox="0 0 48 48" xml:space="preserve" width="48" height="48"><g class="nc-icon-wrapper"><path fill="#D8BC48" d="M38,23c-0.25586,0-0.51172-0.09766-0.70703-0.29297l-6-6c-0.39062-0.39062-0.39062-1.02344,0-1.41406l8-8 c0.39062-0.39062,1.02344-0.39062,1.41406,0l6,6c0.39062,0.39062,0.39062,1.02344,0,1.41406l-2,2 c-0.39062,0.39062-1.02344,0.39062-1.41406,0L41,14.41406L38.41406,17l2.29297,2.29297c0.39062,0.39062,0.39062,1.02344,0,1.41406 l-2,2C38.51172,22.90234,38.25586,23,38,23z"></path> <path fill="#EFD358" d="M44.06055,3.93945c-0.58594-0.58594-1.53516-0.58594-2.12109,0L17.92291,27.95599 C16.26373,26.73218,14.21985,26,12,26C6.47717,26,2,30.47717,2,36s4.47717,10,10,10s10-4.47717,10-10 c0-2.21985-0.73218-4.26373-1.95599-5.92291L44.06055,6.06055C44.64648,5.4751,44.64648,4.5249,44.06055,3.93945z M12,43 c-3.85986,0-7-3.14014-7-7s3.14014-7,7-7c1.91364,0,3.64899,0.77332,4.91382,2.02203 c0.01093,0.01166,0.01428,0.02716,0.02563,0.03851s0.02686,0.01465,0.03851,0.02557C18.22668,32.35101,19,34.08636,19,36 C19,39.85986,15.85986,43,12,43z"></path></g></svg>