<svg version="1.1" xmlns="http://www.w3.org/2000/svg" xmlns:xlink="http://www.w3.org/1999/xlink" x="0px" y="0px" viewBox="0 0 48 48" xml:space="preserve" width="48" height="48"><g class="nc-icon-wrapper"><path fill="#A67C52" d="M41,3H7C5.895,3,5,3.895,5,5v40c0,1.105,0.895,2,2,2h34c1.105,0,2-0.895,2-2V5C43,3.895,42.105,3,41,3z"></path> <path fill="#E6E6E6" d="M37,42H11c-0.552,0-1-0.448-1-1V9c0-0.552,0.448-1,1-1h26c0.552,0,1,0.448,1,1v32C38,41.552,37.552,42,37,42 z"></path> <path fill="#B3B3B3" d="M31,24H17c-0.553,0-1-0.447-1-1s0.447-1,1-1h14c0.553,0,1,0.447,1,1S31.553,24,31,24z"></path> <path fill="#B3B3B3" d="M31,18H17c-0.553,0-1-0.447-1-1s0.447-1,1-1h14c0.553,0,1,0.447,1,1S31.553,18,31,18z"></path> <path fill="#B3B3B3" d="M31,30H17c-0.553,0-1-0.447-1-1s0.447-1,1-1h14c0.553,0,1,0.447,1,1S31.553,30,31,30z"></path> <path fill="#B3B3B3" d="M22,36h-5c-0.553,0-1-0.447-1-1s0.447-1,1-1h5c0.553,0,1,0.447,1,1S22.553,36,22,36z"></path> <path fill="#EFD358" d="M28,5c0-2.209-1.791-4-4-4s-4,1.791-4,4h-3c-0.552,0-1,0.448-1,1v4c0,0.552,0.448,1,1,1h14 c0.552,0,1-0.448,1-1V6c0-0.552-0.448-1-1-1H28z"></path> <circle fill="#B29930" cx="24" cy="5" r="1"></circle></g></svg>