<svg version="1.1" xmlns="http://www.w3.org/2000/svg" xmlns:xlink="http://www.w3.org/1999/xlink" x="0px" y="0px" viewBox="0 0 48 48" xml:space="preserve" width="48" height="48"><g class="nc-icon-wrapper"><path fill="#335262" d="M38,47C17.598,47,1,30.402,1,10c0-0.265,0.105-0.52,0.293-0.707l6-6c0.391-0.391,1.023-0.391,1.414,0l10,10 c0.391,0.391,0.391,1.023,0,1.414L13.414,20L28,34.586l5.293-5.293c0.391-0.391,1.023-0.391,1.414,0l10,10 c0.391,0.391,0.391,1.023,0,1.414l-6,6C38.52,46.895,38.265,47,38,47z"></path></g></svg>