<svg version="1.1" xmlns="http://www.w3.org/2000/svg" xmlns:xlink="http://www.w3.org/1999/xlink" x="0px" y="0px" viewBox="0 0 48 48" xml:space="preserve" width="48" height="48"><g class="nc-icon-wrapper"><path fill="#E6E6E6" d="M45.707,2.293c-0.284-0.285-0.712-0.372-1.082-0.22l-42,17c-0.359,0.145-0.603,0.485-0.623,0.872 c-0.021,0.387,0.183,0.751,0.524,0.935L15,27.598L20.402,33l6.717,12.474C27.295,45.799,27.634,46,28,46 c0.018,0,0.036,0,0.055-0.002c0.387-0.021,0.727-0.264,0.872-0.623l17-42C46.077,3.003,45.991,2.577,45.707,2.293z"></path> <path fill="#B3B3B3" d="M45.707,2.293c-0.371-0.371-0.964-0.393-1.36-0.05l-29,25C15.127,27.433,15,27.709,15,28v4 c0,0.553,0.447,1,1,1h4c0.291,0,0.567-0.127,0.758-0.347l25-29C46.1,3.256,46.077,2.663,45.707,2.293z"></path></g></svg>