<svg version="1.1" xmlns="http://www.w3.org/2000/svg" xmlns:xlink="http://www.w3.org/1999/xlink" x="0px" y="0px" viewBox="0 0 48 48" xml:space="preserve" width="48" height="48"><g class="nc-icon-wrapper"><rect x="18" y="22" fill="#EAC3A2" width="12" height="15"></rect> <path fill="#EAD8C5" d="M24,28c-6.0654297,0-11-4.9345703-11-11v-4c0-6.0654297,4.9345703-11,11-11s11,4.9345703,11,11v4 C35,23.0654297,30.0654297,28,24,28z"></path> <path fill-rule="evenodd" clip-rule="evenodd" fill="#8680D8" d="M43.2495117,37.7966309L30,32h-0.0181885 C28.3123779,33.2503662,26.2462769,34,24,34s-4.3123169-0.7496338-5.9817505-2H18l-0.124939,0.062439l-13.12146,5.7341919 C3.2328491,38.4612427,2,40.3496704,2,42.0092163v2.987854C2,45.5509644,2.4498291,46,3.001709,46h41.9966431 C45.5515747,46,46,45.5621338,46,44.9970703v-2.987854C46,40.34729,44.7710571,38.4623413,43.2495117,37.7966309z"></path></g></svg>