<svg version="1.1" xmlns="http://www.w3.org/2000/svg" xmlns:xlink="http://www.w3.org/1999/xlink" x="0px" y="0px" viewBox="0 0 48 48" xml:space="preserve" width="48" height="48"><g class="nc-icon-wrapper"><path fill="#E0E0E0" d="M44,21C44,9.95428,35.04572,1,24,1C12.95435,1,4,9.95428,4,21c0,6.97986,3.58069,13.117,9,16.69495V44 c0,1.6543,1.3457,3,3,3h16c1.6543,0,3-1.3457,3-3v-6.30499C40.41931,34.11707,44,27.97986,44,21z"></path> <path fill="#444444" d="M16,18c-2.75684,0-5,2.24316-5,5s2.24316,5,5,5s5-2.24316,5-5S18.75684,18,16,18z"></path> <path fill="#444444" d="M32,18c-2.75684,0-5,2.24316-5,5s2.24316,5,5,5s5-2.24316,5-5S34.75684,18,32,18z"></path> <path fill="#444444" d="M26,34h-4c-0.36865,0-0.70752-0.20312-0.88184-0.52832c-0.17383-0.3252-0.15479-0.71973,0.0498-1.02637l2-3 c0.37109-0.55664,1.29297-0.55664,1.66406,0l2,3c0.20459,0.30664,0.22363,0.70117,0.0498,1.02637 C26.70752,33.79688,26.36865,34,26,34z"></path> <path fill="#444444" d="M35,40h-4v-1c0-0.55225-0.44775-1-1-1s-1,0.44775-1,1v1h-4v-1c0-0.55225-0.44775-1-1-1s-1,0.44775-1,1v1h-4 v-1c0-0.55225-0.44775-1-1-1s-1,0.44775-1,1v1h-4v2h4v1c0,0.55225,0.44775,1,1,1s1-0.44775,1-1v-1h4v1c0,0.55225,0.44775,1,1,1 s1-0.44775,1-1v-1h4v1c0,0.55225,0.44775,1,1,1s1-0.44775,1-1v-1h4V40z"></path></g></svg>