<svg version="1.1" xmlns="http://www.w3.org/2000/svg" xmlns:xlink="http://www.w3.org/1999/xlink" x="0px" y="0px" viewBox="0 0 48 48" xml:space="preserve" width="48" height="48"><g class="nc-icon-wrapper"><path fill="#72C472" d="M22,10.82849V33c0,0.55228,0.44772,1,1,1h2c0.55228,0,1-0.44772,1-1V10.82849l6.58594,6.58557 l2.82812-2.82812l-10-10c-0.78097-0.78097-2.04716-0.78097-2.82812,0l-10,10l2.82812,2.82812L22,10.82849z"></path> <path fill="#B3B3B3" d="M38,31c-0.55225,0-1,0.44775-1,1v9H11v-9c0-0.55225-0.44775-1-1-1s-1,0.44775-1,1v10 c0,0.55225,0.44775,1,1,1h28c0.55225,0,1-0.44775,1-1V32C39,31.44775,38.55225,31,38,31z"></path></g></svg>