<svg version="1.1" xmlns="http://www.w3.org/2000/svg" xmlns:xlink="http://www.w3.org/1999/xlink" x="0px" y="0px" viewBox="0 0 48 48" xml:space="preserve" width="48" height="48"><g class="nc-icon-wrapper"><path fill="#C6C6C6" d="M46,43h-2c-0.15527,0-0.30859-0.03613-0.44727-0.10547l-12-6C31.21387,36.72461,31,36.37891,31,36v-8 c0-0.37891,0.21387-0.72461,0.55273-0.89453l12-6C43.69141,21.03613,43.84473,21,44,21h2c0.55273,0,1,0.44727,1,1v20 C47,42.55273,46.55273,43,46,43z"></path> <path fill="#666666" d="M45,43h1c0.55228,0,1-0.44772,1-1V22c0-0.55228-0.44772-1-1-1h-1V43z"></path> <rect x="7" y="13" fill="#87613E" width="18" height="2"></rect> <rect x="14.99966" y="-3.21954" transform="matrix(0.21672 0.97623 -0.97623 0.21672 18.38982 -10.92007)" fill="#87613E" width="2.00068" height="18.43909"></rect> <path fill="#A67C52" d="M31,45H3c-1.10457,0-2-0.89543-2-2V21c0-1.10457,0.89543-2,2-2h28c1.10457,0,2,0.89543,2,2v22 C33,44.10457,32.10457,45,31,45z"></path> <path fill="#999999" d="M25,17c-4.41113,0-8-3.58887-8-8s3.58887-8,8-8s8,3.58887,8,8S29.41113,17,25,17z"></path> <path fill="#999999" d="M7,17c-3.30859,0-6-2.69141-6-6s2.69141-6,6-6s6,2.69141,6,6S10.30859,17,7,17z"></path> <path fill="#C6C6C6" d="M7,15c-2.20573,0-4-1.79427-4-4s1.79427-4,4-4s4,1.79427,4,4S9.20573,15,7,15z"></path> <path fill="#C6C6C6" d="M25,15c-3.30835,0-6-2.69165-6-6s2.69165-6,6-6s6,2.69165,6,6S28.30835,15,25,15z"></path> <path fill="#666666" d="M7,13c-1.10286,0-2-0.89714-2-2s0.89714-2,2-2s2,0.89714,2,2S8.10286,13,7,13z"></path> <path fill="#666666" d="M25,11c-1.10287,0-2-0.89714-2-2s0.89713-2,2-2s2,0.89714,2,2S26.10287,11,25,11z"></path> <circle fill="#FFFFFF" cx="6" cy="25" r="2"></circle> <circle fill="#FFFFFF" cx="6" cy="32" r="2"></circle> <path fill="#87613E" d="M29,34H14c-0.55228,0-1-0.44772-1-1l0,0c0-0.55228,0.44771-1,1-1h15c0.55228,0,1,0.44772,1,1l0,0 C30,33.55228,29.55229,34,29,34z"></path> <path fill="#87613E" d="M29,38H14c-0.55228,0-1-0.44772-1-1l0,0c0-0.55228,0.44771-1,1-1h15c0.55228,0,1,0.44772,1,1l0,0 C30,37.55228,29.55229,38,29,38z"></path> <path fill="#87613E" d="M29,42H14c-0.55228,0-1-0.44772-1-1l0,0c0-0.55228,0.44771-1,1-1h15c0.55228,0,1,0.44772,1,1l0,0 C30,41.55228,29.55229,42,29,42z"></path></g></svg>