<svg version="1.1" xmlns="http://www.w3.org/2000/svg" xmlns:xlink="http://www.w3.org/1999/xlink" x="0px" y="0px" viewBox="0 0 48 48" xml:space="preserve" width="48" height="48"><g class="nc-icon-wrapper"><path fill="#A67C52" d="M43,11c0-1.10457-0.89543-2-2-2H6C4.3457,9,3,7.6543,3,6c0-0.55225-0.44775-1-1-1S1,5.44775,1,6v32 c0,3.86599,3.13401,7,7,7h33c1.10457,0,2-0.89543,2-2V11z"></path> <path fill="#87613E" d="M46,22H36c-2.75684,0-5,2.24316-5,5s2.24316,5,5,5h10c0.55225,0,1-0.44775,1-1v-8 C47,22.44775,46.55225,22,46,22z"></path> <path fill="#87613E" d="M4,3h28c1.10457,0,2,0.89543,2,2v4H4C2.34314,9,1,7.65686,1,6V6C1,4.34314,2.34314,3,4,3z"></path> <circle fill="#EFD358" cx="36" cy="27" r="2"></circle></g></svg>