<svg version="1.1" xmlns="http://www.w3.org/2000/svg" xmlns:xlink="http://www.w3.org/1999/xlink" x="0px" y="0px" viewBox="0 0 48 48" xml:space="preserve" width="48" height="48"><g class="nc-icon-wrapper"><path fill="#72C472" d="M22,4c0.17151,1.88641,3.79993,3.17535,5,5c1.59924,2.43146,1,5,3,5 c1.05835,0,4.10052,0.07068,11.92822-4.38391C37.70917,4.36792,31.24213,1,24,1c-0.51526,0-1.02496,0.02319-1.53192,0.0567 C22.18066,1.78534,21.88922,2.7818,22,4z"></path> <path fill="#72C472" d="M12,38c1.14148-1.91266,2.09442-4.90826,0-8c-1.39282-2.05615-4-4.15839-4-6c0-2.44751,5.94611-3.34406,8-6 c1.8158-2.34808-0.16504-6.50812-1.05707-8.00256c-0.90765-1.52069-3.00555-3.47034-4.43634-4.60651C4.75153,9.5755,1,16.35614,1,24 c0,6.90411,3.06213,13.10272,7.89465,17.3222C10.04144,40.34595,11.5437,38.76459,12,38z"></path> <path fill="#BADEFC" d="M41.92822,9.61609C34.10052,14.07068,31.05835,14,30,14c-2,0-1.40076-2.56854-3-5 c-1.20007-1.82465-4.82849-3.11359-5-5c-0.11078-1.2182,0.18066-2.21466,0.46808-2.9433 c-4.44977,0.29437-8.55615,1.85815-11.96149,4.33423c1.43079,1.13617,3.52869,3.08582,4.43634,4.60651 C15.83496,11.49188,17.8158,15.65192,16,18c-2.05389,2.65594-8,3.55249-8,6c0,1.84161,2.60718,3.94385,4,6 c2.09442,3.09174,1.14148,6.08734,0,8c-0.4563,0.76459-1.95856,2.34595-3.10535,3.3222C12.93896,44.85345,18.22198,47,24,47 c12.68213,0,23-10.31787,23-23C47,18.56,45.09741,13.55829,41.92822,9.61609z M26,38c-3-2,0.5-4.66669-1.97162-12.19305 c-1.03387-3.14832,3.13403-6,7-6c3.86603,0,6.95526,2.68658,7,6C38.11176,31.97357,29.66968,40.44641,26,38z"></path> <path fill="#72C472" d="M31.02838,19.80695c-3.86597,0-8.03387,2.85168-7,6C26.5,33.33331,23,36,26,38 c3.66968,2.44641,12.11176-6.02643,12.02838-12.19305C37.98364,22.49353,34.89441,19.80695,31.02838,19.80695z"></path></g></svg>