<svg version="1.1" xmlns="http://www.w3.org/2000/svg" xmlns:xlink="http://www.w3.org/1999/xlink" x="0px" y="0px" viewBox="0 0 48 48" xml:space="preserve" width="48" height="48"><g class="nc-icon-wrapper"><path fill="#223E49" d="M44,46c-0.51172,0-1.02344-0.19531-1.41406-0.58594L31.31348,34.14209 c-0.78125-0.78076-0.78125-2.04736,0-2.82812c0.78125-0.78125,2.04688-0.78125,2.82812,0l11.27246,11.27197 c0.78125,0.78076,0.78125,2.04736,0,2.82812C45.02344,45.80469,44.51172,46,44,46z"></path> <circle fill="#BADEFC" cx="20" cy="20" r="18"></circle> <path fill="#5A7A84" d="M20,39C9.52344,39,1,30.47656,1,20S9.52344,1,20,1s19,8.52344,19,19S30.47656,39,20,39z M20,3 C10.62598,3,3,10.62598,3,20s7.62598,17,17,17s17-7.62598,17-17S29.37402,3,20,3z"></path></g></svg>